<svg width="17" height="17" viewBox="0 0 17 17" fill="none" xmlns="http://www.w3.org/2000/svg">
<path d="M16.6667 3.21667L12.8333 0L11.7583 1.275L15.5917 4.49167L16.6667 3.21667ZM4.9 1.275L3.83333 0L0 3.20833L1.075 4.48333L4.9 1.275ZM8.75 5.11667H7.5V10.1167L11.4583 12.4917L12.0833 11.4667L8.75 9.49167V5.11667ZM8.33333 1.78333C4.19167 1.78333 0.833333 5.14167 0.833333 9.28333C0.833333 13.425 4.18333 16.7833 8.33333 16.7833C12.475 16.7833 15.8333 13.425 15.8333 9.28333C15.8333 5.14167 12.475 1.78333 8.33333 1.78333ZM8.33333 15.1167C5.10833 15.1167 2.5 12.5083 2.5 9.28333C2.5 6.05833 5.10833 3.45 8.33333 3.45C11.5583 3.45 14.1667 6.05833 14.1667 9.28333C14.1667 12.5083 11.5583 15.1167 8.33333 15.1167Z" fill="black"/>
</svg>
