<svg width="20" height="23" viewBox="0 0 20 23" fill="none" xmlns="http://www.w3.org/2000/svg">
<path d="M11.73 20.725C11.554 21.0356 11.302 21.2938 10.998 21.4732C10.695 21.6516 10.35 21.7458 10 21.7458C9.65 21.7458 9.30501 21.6516 9.00201 21.4732C8.69801 21.2938 8.44599 21.0356 8.26999 20.725H11.73ZM16 7.39999C16 5.76922 15.368 4.20509 14.243 3.05094C13.117 1.89782 11.591 1.25 10 1.25C8.409 1.25 6.88299 1.89782 5.75699 3.05094C4.63199 4.20509 4 5.76922 4 7.39999C4 14.575 1 16.625 1 16.625H19C19 16.625 16 14.575 16 7.39999Z" stroke="#979C9E" stroke-width="1.5" stroke-linecap="round" stroke-linejoin="round"/>
</svg>
