<svg width="24" height="21" viewBox="0 0 24 21" fill="none" xmlns="http://www.w3.org/2000/svg">
<path d="M20.8398 2.92525C20.3288 2.40147 19.7228 1.98636 19.0548 1.70243C18.3878 1.41953 17.6728 1.27295 16.9498 1.27295C16.2278 1.27295 15.5118 1.41953 14.8448 1.70243C14.1768 1.98636 13.5708 2.40147 13.0598 2.92525L11.9998 4.01175L10.9398 2.92525C9.90783 1.86745 8.50884 1.27401 7.04984 1.27401C5.59084 1.27401 4.19184 1.86745 3.15984 2.92525C2.12784 3.98305 1.54883 5.41704 1.54883 6.91252C1.54883 8.40799 2.12784 9.84198 3.15984 10.8998L4.21983 11.9863L11.9998 19.9608L19.7798 11.9863L20.8398 10.8998C21.3508 10.376 21.7558 9.75482 22.0328 9.07012C22.3098 8.38645 22.4518 7.65359 22.4518 6.91252C22.4518 6.17247 22.3098 5.43859 22.0328 4.75491C21.7558 4.07021 21.3508 3.44902 20.8398 2.92525Z" stroke="#979C9E" stroke-width="1.5" stroke-linecap="round" stroke-linejoin="round"/>
</svg>
