<svg width="29" height="20" viewBox="0 0 29 20" fill="none" xmlns="http://www.w3.org/2000/svg">
<path d="M23.3192 6.375C23.3192 7.91971 22.0785 9.16667 20.5417 9.16667C19.0009 9.16667 17.75 7.91579 17.75 6.375C17.75 4.83421 19.0009 3.58333 20.5417 3.58333C22.0785 3.58333 23.3192 4.83029 23.3192 6.375ZM13.4025 4.25C13.4025 6.19072 11.8509 7.75 9.91667 7.75C7.97921 7.75 6.41667 6.18745 6.41667 4.25C6.41667 2.31255 7.97921 0.75 9.91667 0.75C11.8509 0.75 13.4025 2.30928 13.4025 4.25ZM13.5 16.6458C13.5 16.2734 13.6807 15.8918 14.1113 15.4948C14.5469 15.0932 15.1861 14.7287 15.9523 14.422C17.486 13.8082 19.3392 13.5 20.5417 13.5C21.7442 13.5 23.5974 13.8082 25.131 14.422C25.8972 14.7287 26.5364 15.0932 26.9721 15.4948C27.4026 15.8918 27.5833 16.2734 27.5833 16.6458V19.0833H13.5V16.6458ZM0.75 16.2917C0.75 15.7421 1.01942 15.2054 1.59376 14.6757C2.17323 14.1413 3.01162 13.6662 3.99917 13.271C5.97547 12.4801 8.35992 12.0833 9.91667 12.0833C10.3323 12.0833 10.8092 12.1137 11.3248 12.1726C9.54165 13.7295 9.16667 15.493 9.16667 16.6458V19.0833H0.75V16.2917Z" fill="white" stroke="#979C9E" stroke-width="1.5"/>
</svg>
